PathFileType	3	(X/Y/Z)	D:\minhoCalibration\240510\subject2_KPNP\preferred\preferred03.trc
DataRate	CameraRate	NumFrames	NumMarkers	Units	OrigDataRate	OrigDataStartFrame	OrigNumFrames
200.0	200.0	21	10	mm	200.0	364	186	
Frame#	Time	Left_Ankle_Outer1			Left_Ankle_Inner1			Left_Knee_Outer1			Left_Knee_Inner1			Left_Wrist1			Right_Wrist1			Right_Knee_Inner1			Right_Knee_Outer1			Right_Ankle_Inner1			Right_Ankle_Outer1			
		X1	Y1	Z1	X2	Y2	Z2	X3	Y3	Z3	X4	Y4	Z4	X5	Y5	Z5	X6	Y6	Z6	X7	Y7	Z7	X8	Y8	Z8	X9	Y9	Z9	X10	Y10	Z10	
364	1.81	-574.74811	112.46902	-698.69269	-561.92676	122.04414	-642.79193	-416.32895	525.0722	-795.22687	-400.06305	509.97418	-699.17157	-520.2326	938.91113	-857.11243	-459.07092	1176.8073	-605.62885	-294.10687	1000.927	-225.06628	-282.32458	1086.8452	-250.34364	-365.02274	1016.2463	178.00214	-339.97794	1111.0951	178.01991
365	1.815	-574.58575	113.07531	-698.01349	-561.42053	122.17509	-643.1532	-414.76578	526.46307	-793.64636	-400.81677	510.79416	-696.9386	-519.47229	938.22662	-854.77386	-460.34128	1177.8069	-603.91083	-292.13474	1004.3733	-226.67189	-292.08517	1092.7896	-245.96025	-364.44232	1009.566	178.26608	-344.90207	1106.2161	180.29756
366	1.82	-574.39777	113.60558	-697.01526	-561.77985	122.30287	-642.07452	-413.61688	527.45367	-792.10999	-401.78314	511.53528	-694.85126	-518.96942	936.99573	-852.51538	-461.17264	1178.6882	-602.69818	-288.07132	1007.9915	-228.35295	-298.42487	1096.0305	-243.1243	-365.07205	1003.6976	180.35707	-349.24146	1100.4558	181.74408
367	1.825	-574.50153	114.10113	-696.05414	-561.87164	122.60484	-640.93372	-412.68558	528.28711	-790.65424	-402.78308	512.0766	-692.87286	-517.88684	936.36853	-850.59271	-461.69315	1179.6461	-602.19305	-284.16946	1010.9315	-230.10733	-302.25092	1098.0765	-240.61896	-361.64114	995.49457	180.02554	-352.65363	1094.5426	183.4043
368	1.83	-574.44989	114.23673	-694.94641	-562.10522	123.17918	-639.00293	-411.84882	528.93665	-789.39099	-403.72275	512.52734	-691.0968	-516.57452	935.96527	-849.30505	-462.01373	1180.6855	-602.3338	-282.45605	1013.2776	-230.83305	-305.87888	1098.9073	-238.26218	-359.62469	989.40277	181.4207	-355.03281	1088.3446	185.47913
369	1.835	-574.47009	114.37084	-694.07684	-562.22925	123.27356	-638.17303	-411.17667	529.30493	-788.42633	-404.36993	512.7868	-689.56873	-515.04718	935.54089	-847.77142	-462.16595	1181.6964	-602.54889	-281.26538	1015.322	-229.64459	-309.54532	1099.2433	-235.83017	-357.20786	983.89136	182.14677	-355.47574	1082.316	187.00655
370	1.84	-574.49915	114.55743	-693.59155	-562.39575	123.11299	-637.94183	-410.30954	529.59357	-787.80975	-404.8241	512.90485	-688.2204	-513.13794	935.33234	-847.34698	-462.54813	1182.8639	-602.65723	-280.41943	1015.8931	-227.44957	-312.85745	1098.8982	-233.40303	-355.97031	978.86108	182.56665	-355.71445	1076.6611	188.87994
371	1.845	-574.37933	114.6651	-693.40582	-562.23169	123.41801	-637.42621	-409.75391	529.3028	-787.14642	-404.97409	512.8493	-687.20978	-510.74683	935.7287	-847.13123	-463.2847	1183.9032	-602.5498	-279.98312	1015.7063	-225.05347	-315.65311	1098.073	-231.15527	-355.27432	972.41772	182.6647	-355.73047	1070.7399	190.50096
372	1.85	-574.24396	114.7908	-693.69293	-561.81757	122.98656	-638.82568	-408.58408	529.00391	-786.90186	-404.7637	512.72534	-686.38171	-508.28815	936.01605	-847.55646	-464.32568	1184.6195	-602.15326	-281.6806	1014.529	-222.65538	-317.94556	1096.8738	-229.00551	-354.39426	965.92847	182.83749	-355.7229	1063.8623	191.31276
373	1.855	-573.97296	114.90412	-694.4198	-562.48608	123.39932	-638.07031	-407.72574	528.17297	-786.32562	-404.12933	512.48474	-685.86877	-505.38968	936.91162	-847.83881	-465.65335	1184.8762	-601.4455	-285.15533	1012.5583	-220.64583	-319.57367	1095.6721	-226.91811	-353.42999	958.27643	182.63208	-356.93924	1056.2751	192.20576
374	1.86	-573.56848	114.88091	-695.48413	-562.65228	123.4915	-638.83807	-406.13281	527.49432	-786.21521	-402.99503	512.13849	-685.70197	-501.91849	938.21661	-848.87683	-467.30359	1184.6864	-600.60046	-288.42065	1010.5223	-219.56984	-320.67548	1094.6108	-224.74234	-353.33545	950.44489	181.89394	-358.37289	1047.7825	192.57967
375	1.865	-573.29218	115.31573	-697.17719	-562.82391	121.80289	-642.66644	-404.86835	526.42841	-785.67682	-401.40924	511.67603	-685.80835	-498.27765	939.49957	-849.40436	-469.20108	1184.2124	-599.46271	-290.74106	1008.8811	-219.35269	-321.25549	1093.478	-222.57387	-352.99734	941.4032	180.15227	-360.25647	1038.4402	192.52037
376	1.87	-572.78363	115.40179	-698.77313	-562.26453	123.20818	-643.38165	-402.83398	525.82404	-785.73029	-399.40442	511.06042	-686.17218	-494.42062	940.99756	-849.65076	-471.62064	1183.4937	-597.98853	-291.75851	1007.3614	-219.31825	-321.22092	1092.4834	-220.63081	-353.07257	932.04523	177.91653	-363.22607	1028.8793	192.62103
377	1.875	-572.19183	115.7828	-700.59937	-562.45929	123.64313	-644.69672	-401.20346	524.75342	-785.46289	-397.29788	510.44852	-686.70166	-489.82956	942.79626	-850.86243	-474.51627	1182.6082	-596.44208	-291.72922	1006.1539	-219.14371	-320.84235	1091.6439	-218.9315	-353.35519	922.37634	174.94321	-365.96188	1018.4506	191.91959
378	1.88	-571.5014	116.15638	-702.19672	-562.78632	123.93919	-645.99158	-398.93613	524.63397	-785.54266	-395.03799	509.8446	-687.27576	-485.31888	944.46173	-851.52557	-477.96204	1181.6902	-594.94757	-291.23224	1004.9384	-218.88159	-320.34238	1090.8934	-217.528	-353.89023	912.23401	171.91397	-369.84723	1007.486	191.15616
379	1.885	-570.64398	116.56347	-703.5329	-562.1098	123.82417	-649.0484	-396.53842	524.29004	-785.83405	-392.85349	509.26907	-687.80396	-480.62735	946.15448	-852.21161	-481.93875	1180.7968	-593.55908	-290.80463	1003.9116	-218.61443	-320.16891	1090.1915	-216.64668	-354.39429	901.04352	167.06258	-374.146	996.10992	189.53899
380	1.89	-569.95013	117.44244	-704.97833	-562.10254	125.90102	-647.83978	-394.47461	523.91449	-785.98035	-390.63333	508.91937	-688.38947	-475.92627	947.91315	-852.78369	-486.35684	1180.0325	-592.3006	-289.89301	1002.9098	-218.6707	-320.74728	1089.4497	-216.39223	-357.89496	890.02533	163.81075	-379.36093	984.25842	187.49355
381	1.895	-568.99847	117.95231	-705.75812	-561.95831	125.23734	-650.45068	-392.01675	523.5943	-786.26935	-388.52267	508.66849	-688.90222	-471.35632	949.38306	-853.16919	-491.02393	1179.4291	-591.34045	-288.83792	1002.3544	-218.94456	-321.97018	1088.6584	-216.75256	-359.47131	879.09473	157.89177	-385.10068	971.29608	184.47528
382	1.9	-568.31482	119.14556	-706.80322	-561.38696	125.56598	-652.64423	-389.50583	523.37646	-786.52734	-386.39191	508.5318	-689.32343	-466.43179	951.15521	-854.07306	-495.6882	1179.0066	-590.61102	-287.46954	1001.9099	-219.63971	-323.58102	1087.7426	-217.51126	-364.51208	867.54016	153.83347	-391.89166	958.23199	180.90613
383	1.905	-567.26709	119.76621	-706.9187	-560.82983	126.28283	-653.21625	-387.04971	523.10321	-786.59082	-384.29031	508.61728	-689.66327	-462.07364	952.54907	-854.17908	-500.23712	1178.6108	-590.21558	-285.97305	1001.8931	-220.51782	-325.12466	1086.707	-218.40953	-368.44214	853.57544	147.09796	-399.1524	944.37177	176.46185
384	1.91	-566.46722	120.57474	-707.12689	-559.46002	128.59903	-651.78131	-384.56677	523.02448	-786.42657	-382.21893	508.74191	-689.88824	-458.14133	953.62341	-854.0722	-504.46576	1178.1147	-589.94019	-284.68524	1001.7076	-221.65236	-326.39441	1085.4321	-219.23972	-374.8681	842.63928	142.96236	-407.02155	930.2677	171.26764
